<?xml version="1.0" encoding="utf-8"?>
<!-- Generator: Adobe Illustrator 19.1.0, SVG Export Plug-In . SVG Version: 6.00 Build 0)  -->
<svg version="1.1" xmlns="http://www.w3.org/2000/svg" xmlns:xlink="http://www.w3.org/1999/xlink" x="0px" y="0px"
	 viewBox="0 0 600 600" style="enable-background:new 0 0 600 600;" xml:space="preserve">
<style type="text/css">
	.st0{fill:#231F20;}
	.st1{fill:#FFFFFF;}
</style>
<g id="Layer_2">
</g>
<g id="Layer_1">
	<g>
		<g>
			<polygon class="st0" points="346,231 346,293 254,293 254,231 234,231 234,375 254,375 254,313 346,313 346,375 366,375 366,231 
							"/>
			<path class="st0" d="M332,271.6v-3.3c0-3.3-1.3-6.3-3.4-8.4c2.1-2.2,3.4-5.2,3.4-8.4V248c0-6.7-5.3-12-12-12h-55v20.1v7.3V284h55
				C326.7,284,332,278.2,332,271.6z M274,244h46c2.1,0,4,1.9,4,4v3.3c0,2.1-1.9,3.7-4,3.7h-46V244z M274,264h46c2.1,0,4,2.1,4,4.2
				v3.3c0,2.1-1.9,3.4-4,3.4h-46V264z"/>
		</g>
		<path class="st0" d="M335,337.7v-3.4c0-6.9-6-12.3-12.9-12.3H266v9.4v18.9V371h8v-21h45.2l6.3,21.9l8.2-2.3l-5.8-20.7
			C332,346.8,335,342.6,335,337.7z M274,330h48.1c2.2,0,3.9,2,3.9,4.3v3.4c0,2.2-1.7,4.3-3.9,4.3H274V330z"/>
	</g>
</g>
</svg>
