<?xml version="1.0" encoding="utf-8"?>
<!-- Generator: Adobe Illustrator 19.1.0, SVG Export Plug-In . SVG Version: 6.00 Build 0)  -->
<svg version="1.1" xmlns="http://www.w3.org/2000/svg" xmlns:xlink="http://www.w3.org/1999/xlink" x="0px" y="0px"
	 viewBox="0 0 600 600" style="enable-background:new 0 0 600 600;" xml:space="preserve">
<style type="text/css">
	.st0{fill:#231F20;}
	.st1{fill:#FFFFFF;}
	.st2{clip-path:url(#SVGID_2_);fill:#231F20;}
</style>
<g id="Layer_2">
</g>
<g id="Layer_1">
	<rect x="149.7" y="249.3" class="st0" width="91.3" height="93.4"/>
	<g>
		<g>
			<polygon class="st1" points="212,269 212,292 178,292 178,269 170,269 170,323 178,323 178,300 212,300 212,323 220,323 220,269 
							"/>
			<path class="st1" d="M207,284.2v-1.2c0-1.2-0.5-2.3-1.3-3.2c0.8-0.8,1.3-1.9,1.3-3.2v-1.2c0-2.5-1.8-4.4-4.3-4.4H182v7.4v2.7v7.9
				h20.7C205.2,289,207,286.7,207,284.2z M185,274h17.7c0.8,0,1.3,0.6,1.3,1.4v1.2c0,0.8-0.5,1.4-1.3,1.4H185V274z M185,281h17.7
				c0.8,0,1.3,1.1,1.3,1.9v1.2c0,0.8-0.5,0.8-1.3,0.8H185V281z"/>
		</g>
		<path class="st1" d="M208,309v-1.3c0-2.6-1.9-4.7-4.5-4.7H182v3.6v7.1v7.3h3v-7h17.4l2.4,8l3.1-1l-2.3-7.8
			C207,312.5,208,310.8,208,309z M185,306h18.5c0.8,0,1.5,0.9,1.5,1.7v1.3c0,0.8-0.7,2-1.5,2H185V306z"/>
	</g>
	<g>
		<defs>
			<rect id="SVGID_1_" x="248.8" y="275.3" width="553.5" height="38.7"/>
		</defs>
		<clipPath id="SVGID_2_">
			<use xlink:href="#SVGID_1_"  style="overflow:visible;"/>
		</clipPath>
		<path class="st2" d="M259.6,306v-21.7h3.7v8.8h4v-8.8h3.7V306h-3.7v-9.6h-4v9.6H259.6z"/>
		<path class="st2" d="M275.1,284.3h5.5c4,0,5.8,2,5.8,5.7c0,1.9-0.8,3.8-2.6,4.5c1.9,0.8,3,2.3,3,5.1c0,3.6-1.6,6.3-5.8,6.3h-5.9
			V284.3z M278.8,293.2h1.3c1.4,0,2.5-1,2.5-2.8c0-2-0.8-3.1-2.4-3.1h-1.4V293.2z M278.8,302.9h1.6c2,0,2.7-1.1,2.7-3.3
			c0-2.2-0.8-3.3-3.1-3.3h-1.2V302.9z"/>
		<path class="st2" d="M294.4,306h-3.7v-21.7h5.2c4.2,0,6.3,1.8,6.3,6.4c0,3.5-1.3,4.9-2.6,5.5l3.1,9.8h-3.8l-2.6-9
			c-0.5,0.1-1.3,0.1-1.9,0.1V306z M294.4,294h1.3c2,0,2.8-0.8,2.8-3.3c0-2.6-0.8-3.3-2.8-3.3h-1.3V294z"/>
		<path class="st2" d="M306.4,306v-21.7h10v3.2h-6.2v5.6h4.8v3.2h-4.8v6.4h6.7v3.2H306.4z"/>
		<path class="st2" d="M320.4,284.3h5.5c3.8,0,5.9,2.1,5.9,6.5v8.6c0,4.4-2,6.5-5.9,6.5h-5.5V284.3z M324.1,302.9h1.3
			c2,0,2.7-0.8,2.7-3v-9.5c0-2.3-0.7-3-2.7-3h-1.3V302.9z"/>
		<path class="st2" d="M336.1,306v-21.7h3.7V306H336.1z"/>
		<path class="st2" d="M344.1,284.3h5.5c4,0,5.8,2,5.8,5.7c0,1.9-0.8,3.8-2.6,4.5c1.9,0.8,3,2.3,3,5.1c0,3.6-1.6,6.3-5.8,6.3h-5.9
			V284.3z M347.8,293.2h1.3c1.4,0,2.5-1,2.5-2.8c0-2-0.8-3.1-2.4-3.1h-1.4V293.2z M347.8,302.9h1.6c2,0,2.7-1.1,2.7-3.3
			c0-2.2-0.8-3.3-3.1-3.3h-1.2V302.9z"/>
		<path class="st2" d="M359.5,306v-21.7h3.7v18.4h5.8v3.2H359.5z"/>
		<path class="st2" d="M372.4,306v-21.7h10v3.2h-6.2v5.6h4.8v3.2h-4.8v6.4h6.7v3.2H372.4z"/>
		<path class="st2" d="M393.5,289.6c-0.1-1.9-1.1-2.4-2-2.4c-1.2,0-1.9,0.8-1.9,2.1c0,3.7,7.6,5.5,7.6,11.3c0,3.6-2.4,5.5-5.9,5.5
			c-3.5,0-5.4-2.8-5.6-6l3.5-0.5c0.2,2.2,1,3.3,2.2,3.3c1.3,0,2.2-0.7,2.2-2c0-4.3-7.6-5.4-7.6-11.6c0-3.4,2.1-5.4,5.8-5.4
			c3,0,4.8,2.2,5.2,5.2L393.5,289.6z"/>
		<path class="st2" d="M400.6,306v-3.5h3.5v3.5H400.6z"/>
		<path class="st2" d="M415.5,291.5v-1.7c0-1.8-0.8-2.6-1.8-2.6c-1.5,0-2,0.8-2,2.4v11c0,1.6,0.5,2.4,2,2.4c1.3,0,1.8-0.8,1.8-2.2
			v-2.6h3.7v2.5c0,3.1-1.8,5.5-5.5,5.5c-3.9,0-5.7-2.5-5.7-5.5v-11.2c0-3.1,1.8-5.5,5.7-5.5c3.7,0,5.5,2.7,5.5,5.9v1.6H415.5z"/>
		<path class="st2" d="M423.3,289.6c0-3.1,1.8-5.5,5.7-5.5s5.7,2.5,5.7,5.5v11.2c0,3.1-1.8,5.5-5.7,5.5s-5.7-2.5-5.7-5.5V289.6z
			 M427,300.6c0,1.6,0.5,2.4,2,2.4s2-0.8,2-2.4v-11c0-1.6-0.5-2.4-2-2.4s-2,0.8-2,2.4V300.6z"/>
		<path class="st2" d="M453.7,284.3V306h-3.2V289h-0.1L447,306h-1.8l-3.4-16.9h-0.1V306h-3.2v-21.7h4.9l2.6,12.7h0.1l2.6-12.7H453.7
			z"/>
	</g>
</g>
</svg>
