<?xml version="1.0" encoding="utf-8"?>
<!-- Generator: Adobe Illustrator 19.1.0, SVG Export Plug-In . SVG Version: 6.00 Build 0)  -->
<svg version="1.1" xmlns="http://www.w3.org/2000/svg" xmlns:xlink="http://www.w3.org/1999/xlink" x="0px" y="0px"
	 viewBox="0 0 600 600" style="enable-background:new 0 0 600 600;" xml:space="preserve">
<style type="text/css">
	.st0{fill:#231F20;}
	.st1{clip-path:url(#SVGID_2_);fill:#231F20;}
	.st2{fill:#FFFFFF;}
	.st3{clip-path:url(#SVGID_4_);fill:#FFFFFF;}
</style>
<g id="Layer_2">
	<rect x="0.5" width="600" height="600"/>
</g>
<g id="Layer_1">
	<g>
		<g>
			<polygon class="st2" points="346,231 346,293 254,293 254,231 234,231 234,375 254,375 254,313 346,313 346,375 366,375 366,231 
							"/>
			<path class="st2" d="M332,271.6v-3.3c0-3.3-1.3-6.3-3.4-8.4c2.1-2.2,3.4-5.2,3.4-8.4V248c0-6.7-5.3-12-12-12h-55v20.1v7.3V284h55
				C326.7,284,332,278.2,332,271.6z M274,244h46c2.1,0,4,1.9,4,4v3.3c0,2.1-1.9,3.7-4,3.7h-46V244z M274,264h46c2.1,0,4,2.1,4,4.2
				v3.3c0,2.1-1.9,3.4-4,3.4h-46V264z"/>
		</g>
		<path class="st2" d="M335,337.7v-3.4c0-6.9-6-12.3-12.9-12.3H266v9.4v18.9V371h8v-21h45.2l6.3,21.9l8.2-2.3l-5.8-20.7
			C332,346.8,335,342.6,335,337.7z M274,330h48.1c2.2,0,3.9,2,3.9,4.3v3.4c0,2.2-1.7,4.3-3.9,4.3H274V330z"/>
	</g>
	<g>
		<defs>
			<rect id="SVGID_3_" x="197.8" y="197.2" width="204.6" height="205.9"/>
		</defs>
		<clipPath id="SVGID_2_">
			<use xlink:href="#SVGID_3_"  style="overflow:visible;"/>
		</clipPath>
		<path style="clip-path:url(#SVGID_2_);fill:#FFFFFF;" d="M218.2,298.1h-2.5l3,5.8l-3.3,6.5h2.5l2-4.3l2,4.3h2.5l-3.2-6.5l2.9-5.8
			h-2.5l-1.7,3.7L218.2,298.1z M209.3,300.1h0.8c1.4,0,2,0.7,2,2.4v3.2c0,1.8-0.7,2.4-2,2.4h-0.8V300.1z M207,310.3h3.2
			c2.7,0,4.1-1.2,4.2-4.2v-3.8c-0.1-3.1-1.6-4.2-4.2-4.2H207V310.3z M200.1,300h1.2c1.1,0,1.7,0.6,1.7,1.7c0,1.2-0.6,1.7-1.7,1.7
			h-1.2V300z M200.1,310.3v-4.9h1c2.9,0,4.3-1.4,4.3-3.7c0-2.3-1.4-3.7-4.3-3.7h-3.3v12.3H200.1z"/>
		<path style="clip-path:url(#SVGID_2_);fill:#FFFFFF;" d="M306.4,378.2v-2.6h1.6v2.6h1.1v-6h-1.1v2.4h-1.6v-2.4h-1.1v6H306.4z
			 M301.7,374c0-0.7,0.3-0.8,0.7-0.8s0.7,0.2,0.7,0.8v0.2h1.1v0c0-1.5-0.8-2-1.9-2c-1.1,0-1.9,0.5-1.9,2v2.1c0,1.5,0.8,2,1.9,2
			c1.1,0,1.9-0.5,1.9-2V376h-1.1v0.4c0,0.7-0.3,0.8-0.7,0.8s-0.7-0.2-0.7-0.8V374z M296.3,372.2v1h1.3v5h1.1v-5h1.3v-1H296.3z
			 M293.2,378.2l0.3-1.3h1.6l0.3,1.3h1.1l-1.4-6h-1.5l-1.5,6H293.2z M294.3,373.5L294.3,373.5l0.6,2.4h-1.1L294.3,373.5z
			 M289.1,373.1h0.5c0.5,0,0.8,0.3,0.8,0.7c0,0.4-0.3,0.7-0.9,0.7h-0.4V373.1z M289.1,375.5h0.4c0.6,0,1,0.3,1,0.9
			c0,0.5-0.3,0.9-0.9,0.9h-0.5V375.5z M288,378.2h1.7c1.2,0,2-0.5,2-1.7c0-0.7-0.2-1.1-0.9-1.5c0.5-0.3,0.7-0.7,0.7-1.2
			c0-1-0.7-1.5-1.9-1.5H288V378.2z"/>
		<path style="clip-path:url(#SVGID_2_);fill:#FFFFFF;" d="M310,368.2v-1h-1.8v-5h-1.1v6H310z M306.4,368.2v-1h-1.8v-5h-1.1v6H306.4
			z M299.6,368.2l0.3-1.3h1.6l0.3,1.3h1.1l-1.4-6H300l-1.5,6H299.6z M300.7,363.5L300.7,363.5l0.6,2.4h-1.1L300.7,363.5z
			 M293.6,368.2v-4.7h0l1.2,4.7h0.9l1.2-4.7h0v4.7h1v-6h-1.6l-1,3.9h0l-1-3.9h-1.6v6H293.6z M291.6,363.6c-0.2-0.8-0.8-1.5-1.8-1.5
			c-1.2,0-1.8,0.6-1.8,1.7c0,1.7,2.6,1.7,2.6,2.8c0,0.4-0.3,0.7-0.7,0.7c-0.3,0-0.8-0.3-0.9-1l-1.1,0.2c0.3,1.2,1,1.7,2,1.7
			c1.2,0,1.9-0.7,1.9-1.7c0-1.9-2.6-1.9-2.6-2.8c0-0.4,0.2-0.7,0.6-0.7c0.4,0,0.6,0.2,0.8,0.8L291.6,363.6z"/>
		<path style="clip-path:url(#SVGID_2_);fill:#FFFFFF;" d="M402.4,310.2v-2h-4.4V305h3.2v-2h-3.2v-2.7h4.2v-2h-6.7v11.9H402.4z
			 M388.1,300.1h1.3c1.1,0,1.7,0.5,1.7,1.7s-0.7,1.7-1.7,1.7h-1.3V300.1z M394,310.2l-2.4-5.3c1.4-0.5,1.9-1.5,1.9-3
			c0-2.2-1.4-3.6-4.3-3.6h-3.5v11.9h2.4v-4.9h1.2l2.1,4.9H394z M378.1,301.8c0-1.3,0.6-1.7,1.6-1.7c1,0,1.6,0.4,1.6,1.7v4.9
			c0,1.3-0.6,1.7-1.6,1.7c-1,0-1.6-0.4-1.6-1.7V301.8z M375.6,306.3c0,2.9,1.7,4,4,4c2.4,0,4-1.1,4-4v-4.3c0-2.9-1.7-4-4-4
			c-2.4,0-4,1.1-4,4V306.3z"/>
		<path style="clip-path:url(#SVGID_2_);fill:#FFFFFF;" d="M343,382c-1.6-1.4-3.7-1.5-5.6-0.5c-2.1,1.1-3.2,3.2-2.1,5.3
			c1.9,3.7,7.8,0.1,9,2.4c0.6,1.2-0.1,2-1.2,2.6c-1.3,0.7-2.4,0.3-3.5-0.5l-1.5,1.8c1.6,1.4,3.9,1.5,5.9,0.5
			c2.6-1.4,3.5-3.4,2.3-5.8c-2-3.9-7.9-0.3-8.9-2.3c-0.5-0.9,0-1.7,1-2.2c1.1-0.5,2.1-0.3,2.9,0.5L343,382z M333.7,397.6l-0.7-2
			l-6.2,2.1l-1.2-3.5l4.3-1.5l-0.7-2l-4.3,1.5l-1-3l6-2l-0.7-2l-8.4,2.8l4.3,12.7L333.7,397.6z M318.5,401.6l-0.4-2.1l-5.7,1
			l-2-11.1l-2.5,0.4l2.3,13.2L318.5,401.6z M296.1,391.7l2.6,0.1c1.2,0,1.8,0.7,1.8,1.7c0,0.9-0.7,1.6-1.9,1.6L296,395L296.1,391.7z
			 M296,397.1l2.6,0.1c1.5,0,2.1,0.7,2.1,2c0,1.3-0.7,1.9-2.2,1.9l-2.6-0.1L296,397.1z M293.2,403l4.9,0.1c3.4,0.1,4.9-1.3,5-3.4
			c0.1-2-0.5-2.8-2.2-3.6c1.5-0.5,2.1-1.6,2.1-3c-0.1-2.4-1.8-3.3-4.5-3.4l-5-0.1L293.2,403z M285.4,402l1.7-13.3l-2.5-0.3
			l-1.7,13.3L285.4,402z M271.6,387.1l1.6,0.5c2.8,0.8,2.9,3.1,2.2,5.4c-0.7,2.3-1.9,4.2-4.7,3.4l-1.6-0.5L271.6,387.1z
			 M266.1,397.2l4.3,1.2c3.4,1,6.3-0.3,7.6-4.8c1.3-4.6-0.5-7.1-3.9-8.1l-4.3-1.2L266.1,397.2z M259.9,394.3l1-1.9l-5.8-3l1.7-3.3
			l4.1,2.1l1-1.9l-4.1-2.1l1.5-2.8l5.6,2.9l1-1.9l-7.9-4l-6.1,11.9L259.9,394.3z"/>
		<path style="clip-path:url(#SVGID_2_);fill:#FFFFFF;" d="M355.6,228.1l1.2-1.8l-5.5-3.5l2-3.2l3.9,2.5l1.2-1.8l-3.9-2.5l1.7-2.7
			l5.3,3.4l1.2-1.8l-7.5-4.8l-7.2,11.3L355.6,228.1z M341.1,207.6l1.6,0.7c2.7,1.2,2.4,3.4,1.4,5.6c-1,2.2-2.5,3.9-5.2,2.6l-1.6-0.7
			L341.1,207.6z M334.1,216.8l4,1.8c3.2,1.5,6.3,0.7,8.2-3.6c1.9-4.3,0.5-7.1-2.7-8.6l-4-1.8L334.1,216.8z M319.4,212.5l2.4,0.7
			l1.6-2.6l4.1,1.2l-0.1,3l2.4,0.7v-13.9l-3.1-0.9L319.4,212.5z M327.6,203.6L327.6,203.6l-0.1,6l-3-0.9L327.6,203.6z M304.8,210.7
			l1.3-10.4l0,0l1.6,10.8l1.9,0.2l4.3-10.1l0,0l-1.3,10.4l2.2,0.3l1.7-13.3l-3.6-0.5l-3.8,8.9l0,0l-1.4-9.6l-3.6-0.5l-1.7,13.3
			L304.8,210.7z M289,200.2l1.7-0.1c2.9-0.2,3.8,1.9,4,4.3c0.2,2.4-0.3,4.6-3.3,4.8l-1.7,0.1L289,200.2z M287.3,211.6l4.4-0.3
			c3.5-0.3,5.8-2.4,5.5-7.1c-0.4-4.7-3-6.5-6.5-6.2l-4.4,0.3L287.3,211.6z M273.9,214.3l-2.1-9.3l0,0l7.5,8l2.4-0.6l-3-13l-2.3,0.5
			l2,8.9l0,0l-7.2-7.7l-2.6,0.6l3,13L273.9,214.3z M257.2,220.3l2.4-0.9l-0.3-3l3.9-1.6l1.7,2.4l2.4-0.9l-8.4-11.1l-3,1.2
			L257.2,220.3z M258.3,208.3L258.3,208.3l3.6,4.8l-2.9,1.1L258.3,208.3z M246.5,226.4l-2.9-5l4.5-2.6l2.9,5l2.2-1.3l-6.7-11.6
			l-2.2,1.3l2.7,4.6l-4.5,2.6l-2.7-4.6l-2.2,1.3l6.7,11.6L246.5,226.4z"/>
	</g>
	<g>
		<path class="st2" d="M299.5,225.9c0.9-0.4,1.7-1,2.4-1.8c1.1-1.2,1.9-2.5,2.3-4c-1.4,0.4-2.8,1.2-3.9,2.4
			c-0.7,0.7-1.2,1.5-1.6,2.3c0.3-0.9,0.4-1.8,0.4-2.8c0-1.6-0.4-3.2-1.1-4.5c-0.7,1.4-1.1,2.9-1.1,4.5c0,1,0.1,1.9,0.4,2.8
			c-0.4-0.8-1-1.6-1.6-2.3c-1.1-1.2-2.5-2-3.9-2.4c0.4,1.5,1.2,2.9,2.3,4c0.7,0.7,1.5,1.3,2.3,1.7c-0.3,0-0.6-0.1-0.9-0.1
			c-1,0-1.9,0.3-2.7,0.7c0.8,0.4,1.7,0.6,2.7,0.6c0.6,0,1.2-0.1,1.7-0.3c-0.3,0.3-0.4,0.6-0.5,0.9c0.3-0.1,0.7-0.3,1-0.6
			c0.1-0.1,0.4-0.2,0.4-0.4v2.3c0,0-0.1,0.1,0.1,0.1c0.1,0,0.1-0.2,0.1-0.2l0-2.6c0.1,0.2,0.3,0.4,0.4,0.6c0.3,0.3,0.6,0.4,0.9,0.5
			c-0.1-0.3-0.3-0.6-0.6-0.9c0.5,0.2,1.1,0.3,1.7,0.3c1,0,1.9-0.2,2.7-0.6c-0.8-0.4-1.7-0.7-2.7-0.7
			C300.3,225.8,299.9,225.8,299.5,225.9z"/>
	</g>
</g>
</svg>
